<svg width="24" height="24" viewBox="0 0 24 24" fill="none" xmlns="http://www.w3.org/2000/svg">
<path d="M10.9997 6.25C11.9942 6.25 12.9478 6.64545 13.6511 7.34863C14.3544 8.05189 14.7497 9.00544 14.7497 10V10.25H15.9997C16.2166 10.25 16.4227 10.3443 16.5652 10.5078C16.7075 10.6714 16.7727 10.8887 16.7429 11.1035L15.7429 18.2959C15.7134 18.7271 15.4912 19.099 15.1755 19.3516C14.841 19.6191 14.4163 19.75 13.9997 19.75H7.99973C7.58317 19.7499 7.15843 19.6191 6.82394 19.3516C6.50834 19.099 6.28505 18.727 6.25558 18.2959L5.25656 11.1035C5.22675 10.8888 5.29199 10.6714 5.4343 10.5078C5.57668 10.3443 5.78291 10.2501 5.99973 10.25H7.24973V10C7.24973 9.0055 7.64518 8.05188 8.34836 7.34863C9.05156 6.64543 10.0053 6.25007 10.9997 6.25ZM7.74289 18.0967C7.74607 18.1196 7.74574 18.1429 7.7468 18.166C7.74989 18.1694 7.75458 18.1742 7.76144 18.1797C7.80194 18.2121 7.88607 18.2499 7.99973 18.25H13.9997C14.1134 18.25 14.1974 18.2121 14.238 18.1797C14.2445 18.1745 14.2486 18.1694 14.2517 18.166C14.2527 18.1429 14.2534 18.1196 14.2566 18.0967L15.1384 11.75H6.86105L7.74289 18.0967ZM10.9997 7.75C10.4031 7.75007 9.8308 7.98728 9.40891 8.40918C8.98703 8.83112 8.74973 9.40332 8.74973 10V10.25H13.2497V10C13.2497 9.40326 13.0125 8.83114 12.5905 8.40918C12.1686 7.9873 11.5964 7.75 10.9997 7.75ZM17.4997 5.25C17.9139 5.25 18.2497 5.58579 18.2497 6V6.75H18.9997C19.4139 6.75 19.7497 7.08579 19.7497 7.5C19.7497 7.91421 19.4139 8.25 18.9997 8.25H18.2497V9C18.2497 9.41421 17.9139 9.75 17.4997 9.75C17.0856 9.74986 16.7497 9.41413 16.7497 9V8.25H15.9997C15.5856 8.24986 15.2497 7.91413 15.2497 7.5C15.2497 7.08587 15.5856 6.75014 15.9997 6.75H16.7497V6C16.7497 5.58587 17.0856 5.25014 17.4997 5.25Z" fill="black"/>
</svg>
