<svg width="24" height="24" viewBox="0 0 24 24" fill="none" xmlns="http://www.w3.org/2000/svg">
<path d="M11.9997 5.25C12.9942 5.25 13.9478 5.64545 14.6511 6.34863C15.3544 7.05189 15.7497 8.00544 15.7497 9V9.25H16.9997C17.2166 9.25 17.4227 9.3443 17.5652 9.50781C17.7075 9.67139 17.7727 9.8887 17.7429 10.1035L16.7429 17.2959C16.7134 17.7271 16.4912 18.099 16.1755 18.3516C15.841 18.6191 15.4163 18.75 14.9997 18.75H8.99973C8.58317 18.7499 8.15843 18.6191 7.82394 18.3516C7.50834 18.099 7.28505 17.727 7.25558 17.2959L6.25656 10.1035C6.22675 9.88877 6.29199 9.67137 6.4343 9.50781C6.57668 9.34429 6.78291 9.25007 6.99973 9.25H8.24973V9C8.24973 8.0055 8.64518 7.05188 9.34836 6.34863C10.0516 5.64543 11.0053 5.25007 11.9997 5.25ZM8.74289 17.0967C8.74607 17.1196 8.74574 17.1429 8.7468 17.166C8.74989 17.1694 8.75458 17.1742 8.76144 17.1797C8.80194 17.2121 8.88607 17.2499 8.99973 17.25H14.9997C15.1134 17.25 15.1974 17.2121 15.238 17.1797C15.2445 17.1745 15.2486 17.1694 15.2517 17.166C15.2527 17.1429 15.2534 17.1196 15.2566 17.0967L16.1384 10.75H7.86105L8.74289 17.0967ZM11.9997 6.75C11.4031 6.75007 10.8308 6.98728 10.4089 7.40918C9.98703 7.83112 9.74973 8.40332 9.74973 9V9.25H14.2497V9C14.2497 8.40326 14.0125 7.83114 13.5905 7.40918C13.1686 6.9873 12.5964 6.75 11.9997 6.75Z" fill="black"/>
</svg>
