<svg width="24" height="24" viewBox="0 0 24 24" fill="none" xmlns="http://www.w3.org/2000/svg">
<path d="M8.2666 5.25C8.52652 5.25 8.78342 5.30951 9.0166 5.4248C9.19144 5.51126 9.34975 5.62743 9.48438 5.76758L9.61133 5.91602L9.63477 5.9502L10.0967 6.63477H18.0664C18.5102 6.63477 18.9376 6.80924 19.2539 7.12207C19.5704 7.43515 19.75 7.86128 19.75 8.30762V17.0771C19.7499 17.5235 19.5704 17.9496 19.2539 18.2627C18.9376 18.5755 18.5102 18.75 18.0664 18.75H5.93359C5.4898 18.75 5.0624 18.5755 4.74609 18.2627C4.42958 17.9496 4.25006 17.5235 4.25 17.0771V6.92285C4.25006 6.47653 4.42958 6.05036 4.74609 5.7373C5.0624 5.42447 5.4898 5.25 5.93359 5.25H8.2666ZM5.93359 6.75C5.88231 6.75 5.83454 6.77032 5.80078 6.80371C5.76738 6.83676 5.75006 6.87973 5.75 6.92285V17.0771C5.75006 17.1203 5.76738 17.1632 5.80078 17.1963C5.83454 17.2297 5.88231 17.25 5.93359 17.25H18.0664C18.1177 17.25 18.1655 17.2297 18.1992 17.1963C18.2326 17.1632 18.2499 17.1203 18.25 17.0771V8.30762C18.25 8.26448 18.2326 8.22156 18.1992 8.18848C18.1655 8.15509 18.1177 8.13477 18.0664 8.13477H9.94629C9.75892 8.13471 9.57357 8.09103 9.40527 8.00781C9.23699 7.92453 9.08955 7.80359 8.97559 7.65332C8.96717 7.64222 8.95896 7.63069 8.95117 7.61914L8.41113 6.81738C8.39531 6.79813 8.37535 6.7813 8.35156 6.76953C8.3256 6.75672 8.29639 6.75 8.2666 6.75H5.93359ZM9 12.25C9.41421 12.25 9.75 12.5858 9.75 13V15.5C9.75 15.9142 9.41421 16.25 9 16.25C8.58579 16.25 8.25 15.9142 8.25 15.5V13C8.25 12.5858 8.58579 12.25 9 12.25ZM12 10.25C12.4142 10.25 12.75 10.5858 12.75 11V15.5C12.75 15.9142 12.4142 16.25 12 16.25C11.5858 16.25 11.25 15.9142 11.25 15.5V11C11.25 10.5858 11.5858 10.25 12 10.25ZM15 11.25C15.4142 11.25 15.75 11.5858 15.75 12V15.5C15.75 15.9142 15.4142 16.25 15 16.25C14.5858 16.25 14.25 15.9142 14.25 15.5V12C14.25 11.5858 14.5858 11.25 15 11.25Z" fill="black"/>
</svg>
