<svg width="24" height="24" viewBox="0 0 24 24" fill="none" xmlns="http://www.w3.org/2000/svg">
<path d="M14.5625 5.25323C14.9752 5.28776 15.2815 5.65011 15.2471 6.06281L14.9814 9.25031H18.5C18.9142 9.25031 19.25 9.58609 19.25 10.0003C19.2498 10.4144 18.9141 10.7503 18.5 10.7503H14.8564L14.6484 13.2503H18C18.4142 13.2503 18.75 13.5861 18.75 14.0003C18.7498 14.4144 18.4141 14.7503 18 14.7503H14.5234L14.2471 18.0628C14.2124 18.4753 13.8501 18.7818 13.4375 18.7474C13.0249 18.7129 12.7187 18.3504 12.7529 17.9378L13.0186 14.7503H10.5234L10.2471 18.0628C10.2124 18.4753 9.8501 18.7818 9.4375 18.7474C9.02493 18.7129 8.7187 18.3504 8.75293 17.9378L9.01855 14.7503H6C5.58589 14.7503 5.25016 14.4144 5.25 14.0003C5.25 13.5861 5.58579 13.2503 6 13.2503H9.14355L9.35156 10.7503H6.5C6.08589 10.7503 5.75016 10.4144 5.75 10.0003C5.75 9.58609 6.08579 9.25031 6.5 9.25031H9.47656L9.75293 5.93781C9.78745 5.52514 10.1498 5.21884 10.5625 5.25323C10.9752 5.28776 11.2815 5.65011 11.2471 6.06281L10.9814 9.25031H13.4766L13.7529 5.93781C13.7875 5.52514 14.1498 5.21884 14.5625 5.25323ZM10.6484 13.2503H13.1436L13.3516 10.7503H10.8564L10.6484 13.2503Z" fill="black"/>
</svg>
