<svg width="24" height="24" viewBox="0 0 24 24" fill="none" xmlns="http://www.w3.org/2000/svg">
<path d="M18 16.25C18.4142 16.25 18.75 16.5858 18.75 17C18.75 17.4142 18.4142 17.75 18 17.75H6C5.58579 17.75 5.25 17.4142 5.25 17C5.25 16.5858 5.58579 16.25 6 16.25H18ZM6.7373 11.25C7.15131 11.2502 7.4873 11.5859 7.4873 12C7.4873 12.4141 7.15131 12.7498 6.7373 12.75H6C5.58579 12.75 5.25 12.4142 5.25 12C5.25 11.5858 5.58579 11.25 6 11.25H6.7373ZM10.7373 11.25C11.1513 11.2502 11.4873 11.5859 11.4873 12C11.4873 12.4141 11.1513 12.7498 10.7373 12.75H9.2627C8.84869 12.7498 8.5127 12.4141 8.5127 12C8.5127 11.5859 8.84869 11.2502 9.2627 11.25H10.7373ZM14.7373 11.25C15.1513 11.2502 15.4873 11.5859 15.4873 12C15.4873 12.4141 15.1513 12.7498 14.7373 12.75H13.2627C12.8487 12.7498 12.5127 12.4141 12.5127 12C12.5127 11.5859 12.8487 11.2502 13.2627 11.25H14.7373ZM18 11.25C18.4142 11.25 18.75 11.5858 18.75 12C18.75 12.4142 18.4142 12.75 18 12.75H17.2627C16.8487 12.7498 16.5127 12.4141 16.5127 12C16.5127 11.5859 16.8487 11.2502 17.2627 11.25H18ZM18 6.25C18.4142 6.25 18.75 6.58579 18.75 7C18.75 7.41421 18.4142 7.75 18 7.75H6C5.58579 7.75 5.25 7.41421 5.25 7C5.25 6.58579 5.58579 6.25 6 6.25H18Z" fill="black"/>
</svg>
