<svg width="24" height="24" viewBox="0 0 24 24" fill="none" xmlns="http://www.w3.org/2000/svg">
<path d="M14.9141 15.5309C15.1728 15.2077 15.6454 15.1552 15.9688 15.4138L17.4688 16.614C17.6465 16.7562 17.7499 16.9722 17.75 17.1999C17.7499 17.4276 17.6465 17.6435 17.4688 17.7858L15.9688 18.985C15.6453 19.2438 15.1728 19.1913 14.9141 18.8679C14.6957 18.5944 14.7016 18.2169 14.9033 17.9499H7C6.58579 17.9499 6.25 17.6141 6.25 17.1999C6.25006 16.7857 6.58582 16.4499 7 16.4499H14.9033C14.7016 16.1826 14.6953 15.8044 14.9141 15.5309ZM14.9141 10.5309C15.1728 10.2077 15.6454 10.1552 15.9688 10.4138L17.4688 11.614C17.6465 11.7562 17.7499 11.9722 17.75 12.1999C17.7499 12.4276 17.6465 12.6435 17.4688 12.7858L15.9688 13.985C15.6453 14.2438 15.1728 14.1913 14.9141 13.8679C14.6957 13.5944 14.7016 13.2169 14.9033 12.9499H7C6.58579 12.9499 6.25 12.6141 6.25 12.1999C6.25006 11.7857 6.58582 11.4499 7 11.4499H14.9033C14.7016 11.1826 14.6953 10.8044 14.9141 10.5309ZM14.9141 5.53094C15.1728 5.2077 15.6454 5.15516 15.9688 5.41376L17.4688 6.61395C17.6465 6.75622 17.7499 6.97219 17.75 7.19989C17.7499 7.42759 17.6465 7.64354 17.4688 7.78583L15.9688 8.98505C15.6453 9.2438 15.1728 9.19131 14.9141 8.86786C14.6957 8.59443 14.7016 8.21691 14.9033 7.94989H7C6.58579 7.94989 6.25 7.6141 6.25 7.19989C6.25006 6.78573 6.58582 6.44989 7 6.44989H14.9033C14.7016 6.1826 14.6953 5.80436 14.9141 5.53094Z" fill="black"/>
</svg>
