<svg width="24" height="24" viewBox="0 0 24 24" fill="none" xmlns="http://www.w3.org/2000/svg">
<path d="M17 5.25C17.9665 5.25 18.75 6.0335 18.75 7V17C18.75 17.9665 17.9665 18.75 17 18.75H7C6.0335 18.75 5.25 17.9665 5.25 17V7C5.25 6.0335 6.0335 5.25 7 5.25H17ZM6.75 16.3105V17C6.75 17.1381 6.86193 17.25 7 17.25H7.68945L17.25 7.68945V7C17.25 6.86193 17.1381 6.75 17 6.75H16.3105L6.75 16.3105ZM13.8105 17.25H17C17.1381 17.25 17.25 17.1381 17.25 17V13.8105L13.8105 17.25ZM9.81055 17.25H11.6895L17.25 11.6895V9.81055L9.81055 17.25ZM6.75 12.3105V14.1895L14.1895 6.75H12.3105L6.75 12.3105ZM7 6.75C6.86193 6.75 6.75 6.86193 6.75 7V10.1895L10.1895 6.75H7Z" fill="black"/>
</svg>
