<svg width="24" height="24" viewBox="0 0 24 24" fill="none" xmlns="http://www.w3.org/2000/svg">
<path d="M12 4.25C13.525 4.25 14.9871 4.85624 16.0654 5.93457C17.1438 7.0129 17.75 8.47501 17.75 10C17.75 11.0426 17.3811 12.1024 16.8857 13.0684C16.3862 14.0424 15.7294 14.9769 15.0859 15.7812C14.4407 16.5878 13.7976 17.2794 13.3164 17.7686C13.0754 18.0136 12.8735 18.2088 12.7314 18.3438C12.6604 18.4112 12.6035 18.4639 12.5645 18.5C12.5452 18.5178 12.5301 18.5314 12.5195 18.541C12.5142 18.5459 12.5098 18.55 12.5068 18.5527C12.5056 18.5539 12.5047 18.5549 12.5039 18.5557L12.502 18.5566V18.5576C12.2523 18.7823 11.8892 18.8102 11.6113 18.6416L11.498 18.5576L11.4932 18.5527C11.4902 18.55 11.4858 18.5459 11.4805 18.541C11.4699 18.5314 11.4548 18.5178 11.4355 18.5C11.3965 18.4639 11.3396 18.4112 11.2686 18.3438C11.1265 18.2088 10.9246 18.0136 10.6836 17.7686C10.2024 17.2794 9.55933 16.5878 8.91406 15.7812C8.27062 14.9769 7.61379 14.0424 7.11426 13.0684C6.61894 12.1024 6.25 11.0426 6.25 10C6.25 8.47501 6.85624 7.0129 7.93457 5.93457C9.0129 4.85624 10.475 4.25 12 4.25ZM12 5.75C10.8728 5.75 9.79215 6.19809 8.99512 6.99512C8.19809 7.79215 7.75 8.87283 7.75 10C7.75 10.7073 8.00611 11.5226 8.44824 12.3848C8.8862 13.2387 9.47943 14.0856 10.0859 14.8438C10.6907 15.5997 11.2976 16.2519 11.7539 16.7158C11.8412 16.8046 11.9251 16.884 12 16.958C12.0749 16.884 12.1588 16.8046 12.2461 16.7158C12.7024 16.2519 13.3093 15.5997 13.9141 14.8438C14.5206 14.0856 15.1138 13.2387 15.5518 12.3848C15.9939 11.5226 16.25 10.7073 16.25 10C16.25 8.87283 15.8019 7.79215 15.0049 6.99512C14.2079 6.19809 13.1272 5.75 12 5.75ZM12 7.5C13.3807 7.5 14.5 8.61929 14.5 10C14.5 11.3807 13.3807 12.5 12 12.5C10.6193 12.5 9.5 11.3807 9.5 10C9.5 8.61929 10.6193 7.5 12 7.5ZM12 9C11.4477 9 11 9.44772 11 10C11 10.5523 11.4477 11 12 11C12.5523 11 13 10.5523 13 10C13 9.44772 12.5523 9 12 9Z" fill="black"/>
</svg>
