<svg width="24" height="24" viewBox="0 0 24 24" fill="none" xmlns="http://www.w3.org/2000/svg">
<path d="M11.9004 4.25C13.0876 4.25021 14.0498 5.21311 14.0498 6.40039C14.0497 6.79974 13.9378 7.17182 13.748 7.49219L15.6387 9.89062C15.8756 9.80074 16.132 9.75 16.4004 9.75C17.5876 9.75021 18.5498 10.7131 18.5498 11.9004C18.5496 13.0875 17.5875 14.0496 16.4004 14.0498C15.2131 14.0498 14.2502 13.0876 14.25 11.9004C14.25 11.5309 14.3426 11.1827 14.5068 10.8789L12.583 8.43652C12.3683 8.50848 12.1393 8.54976 11.9004 8.5498C11.6612 8.5498 11.4318 8.50862 11.2168 8.43652L9.29102 10.8789C9.4555 11.1829 9.5498 11.5305 9.5498 11.9004C9.54964 12.8233 8.96706 13.6075 8.15039 13.9121V15.3867C8.96736 15.6915 9.5498 16.4772 9.5498 17.4004C9.54959 18.5875 8.58749 19.5496 7.40039 19.5498C6.21311 19.5498 5.25021 18.5876 5.25 17.4004C5.25 16.477 5.83305 15.6914 6.65039 15.3867V13.9121C5.83335 13.6076 5.25016 12.8235 5.25 11.9004C5.25 10.713 6.21298 9.75 7.40039 9.75C7.66849 9.75005 7.92447 9.80089 8.16113 9.89062L10.0508 7.49219C9.86115 7.17193 9.75007 6.79953 9.75 6.40039C9.75 5.21298 10.713 4.25 11.9004 4.25ZM7.40039 16.75C7.04141 16.75 6.75 17.0414 6.75 17.4004C6.75021 17.7592 7.04154 18.0498 7.40039 18.0498C7.75907 18.0496 8.04959 17.7591 8.0498 17.4004C8.0498 17.0415 7.7592 16.7502 7.40039 16.75ZM7.40039 11.25C7.04141 11.25 6.75 11.5414 6.75 11.9004C6.75021 12.2592 7.04154 12.5498 7.40039 12.5498C7.75907 12.5496 8.04959 12.2591 8.0498 11.9004C8.0498 11.5415 7.7592 11.2502 7.40039 11.25ZM16.4004 11.25C16.0414 11.25 15.75 11.5414 15.75 11.9004C15.7502 12.2592 16.0415 12.5498 16.4004 12.5498C16.7591 12.5496 17.0496 12.2591 17.0498 11.9004C17.0498 11.5415 16.7592 11.2502 16.4004 11.25ZM11.9004 5.75C11.5414 5.75 11.25 6.04141 11.25 6.40039C11.2502 6.7592 11.5415 7.0498 11.9004 7.0498C12.2591 7.04959 12.5496 6.75907 12.5498 6.40039C12.5498 6.04154 12.2592 5.75021 11.9004 5.75Z" fill="black"/>
</svg>
