<svg width="24" height="24" viewBox="0 0 24 24" fill="none" xmlns="http://www.w3.org/2000/svg">
<path d="M17.5 4.25C18.7426 4.25 19.75 5.25736 19.75 6.5C19.75 7.74264 18.7426 8.75 17.5 8.75C17.1527 8.75 16.8249 8.66884 16.5312 8.52832L16.5303 8.53027L14.5303 10.5303C14.4867 10.5739 14.4372 10.608 14.3867 10.6387C14.6163 11.0404 14.75 11.5042 14.75 12C14.75 12.4955 14.6161 12.9588 14.3867 13.3604C14.4374 13.391 14.4865 13.426 14.5303 13.4697L16.5312 15.4707C16.8248 15.3303 17.1528 15.25 17.5 15.25C18.7426 15.25 19.75 16.2574 19.75 17.5C19.75 18.7426 18.7426 19.75 17.5 19.75C16.2574 19.75 15.25 18.7426 15.25 17.5C15.25 17.1528 15.3303 16.8248 15.4707 16.5312L13.4697 14.5303C13.426 14.4865 13.391 14.4374 13.3604 14.3867C12.9588 14.6161 12.4955 14.75 12 14.75C11.5042 14.75 11.0404 14.6163 10.6387 14.3867C10.608 14.4372 10.5739 14.4867 10.5303 14.5303L8.53027 16.5303L8.52832 16.5312C8.66884 16.8249 8.75 17.1527 8.75 17.5C8.75 18.7426 7.74264 19.75 6.5 19.75C5.25736 19.75 4.25 18.7426 4.25 17.5C4.25 16.2574 5.25736 15.25 6.5 15.25C6.84684 15.25 7.17438 15.3305 7.46777 15.4707L7.46973 15.4697L9.46973 13.4697C9.51326 13.4262 9.56193 13.3909 9.6123 13.3604C9.3831 12.9589 9.25 12.4954 9.25 12C9.25 11.5043 9.38284 11.0403 9.6123 10.6387C9.56209 10.6081 9.51314 10.5737 9.46973 10.5303L7.46777 8.52832C7.17428 8.66861 6.84699 8.75 6.5 8.75C5.25736 8.75 4.25 7.74264 4.25 6.5C4.25 5.25736 5.25736 4.25 6.5 4.25C7.74264 4.25 8.75 5.25736 8.75 6.5C8.75 6.84699 8.66861 7.17428 8.52832 7.46777L10.5303 9.46973C10.5737 9.51314 10.6081 9.56209 10.6387 9.6123C11.0403 9.38284 11.5043 9.25 12 9.25C12.4954 9.25 12.9589 9.3831 13.3604 9.6123C13.3909 9.56193 13.4262 9.51326 13.4697 9.46973L15.4697 7.46973L15.4707 7.46777C15.3305 7.17438 15.25 6.84684 15.25 6.5C15.25 5.25736 16.2574 4.25 17.5 4.25ZM6.5 16.75C6.08579 16.75 5.75 17.0858 5.75 17.5C5.75 17.9142 6.08579 18.25 6.5 18.25C6.91421 18.25 7.25 17.9142 7.25 17.5C7.25 17.0858 6.91421 16.75 6.5 16.75ZM17.5 16.75C17.0858 16.75 16.75 17.0858 16.75 17.5C16.75 17.9142 17.0858 18.25 17.5 18.25C17.9142 18.25 18.25 17.9142 18.25 17.5C18.25 17.0858 17.9142 16.75 17.5 16.75ZM12 10.75C11.3096 10.75 10.75 11.3096 10.75 12C10.75 12.6904 11.3096 13.25 12 13.25C12.6904 13.25 13.25 12.6904 13.25 12C13.25 11.3096 12.6904 10.75 12 10.75ZM6.5 5.75C6.08579 5.75 5.75 6.08579 5.75 6.5C5.75 6.91421 6.08579 7.25 6.5 7.25C6.91421 7.25 7.25 6.91421 7.25 6.5C7.25 6.08579 6.91421 5.75 6.5 5.75ZM17.5 5.75C17.0858 5.75 16.75 6.08579 16.75 6.5C16.75 6.91421 17.0858 7.25 17.5 7.25C17.9142 7.25 18.25 6.91421 18.25 6.5C18.25 6.08579 17.9142 5.75 17.5 5.75Z" fill="black"/>
</svg>
