<svg width="24" height="24" viewBox="0 0 24 24" fill="none" xmlns="http://www.w3.org/2000/svg">
<path d="M13.9072 5.25586C13.9376 5.25211 13.9686 5.25 14 5.25C14.3438 5.25 14.6302 5.48232 14.7188 5.79785L17.5166 8.45605C17.5201 8.45939 17.5229 8.4634 17.5264 8.4668C17.5292 8.46955 17.5314 8.47279 17.5342 8.47559C17.5998 8.5425 17.6531 8.61935 17.6895 8.7041C17.691 8.7076 17.6919 8.71132 17.6934 8.71484C17.7302 8.80447 17.75 8.90115 17.75 9V18.5C17.75 18.8443 17.6056 19.1664 17.3623 19.3975C17.1204 19.6272 16.8 19.75 16.4736 19.75H7.52637C7.19999 19.75 6.87964 19.6272 6.6377 19.3975C6.39443 19.1664 6.25 18.8443 6.25 18.5V6.5C6.25 6.1557 6.39443 5.83364 6.6377 5.60254L6.73145 5.52148C6.95936 5.34387 7.24064 5.25 7.52637 5.25H13.8418C13.8638 5.25 13.8855 5.25395 13.9072 5.25586ZM7.75 18.25H16.25V9.75H14C13.5858 9.75 13.25 9.41421 13.25 9V6.75H7.75V18.25ZM9.5 12.75C9.91421 12.75 10.25 13.0858 10.25 13.5V16.5C10.25 16.9142 9.91421 17.25 9.5 17.25C9.08579 17.25 8.75 16.9142 8.75 16.5V13.5C8.75 13.0858 9.08579 12.75 9.5 12.75ZM12 11.25C12.4142 11.25 12.75 11.5858 12.75 12V16.5C12.75 16.9142 12.4142 17.25 12 17.25C11.5858 17.25 11.25 16.9142 11.25 16.5V12C11.25 11.5858 11.5858 11.25 12 11.25ZM14.5 13.25C14.9142 13.25 15.25 13.5858 15.25 14V16.5C15.25 16.9142 14.9142 17.25 14.5 17.25C14.0858 17.25 13.75 16.9142 13.75 16.5V14C13.75 13.5858 14.0858 13.25 14.5 13.25ZM14.75 8.25H15.1221L14.75 7.89648V8.25Z" fill="black"/>
</svg>
