<svg width="24" height="24" viewBox="0 0 24 24" fill="none" xmlns="http://www.w3.org/2000/svg">
<path d="M6.5 5.25C6.91421 5.25 7.25 5.58579 7.25 6C7.25 6.41421 6.91421 6.75 6.5 6.75H5.75V17.25H6.5C6.91421 17.25 7.25 17.5858 7.25 18C7.25 18.4142 6.91421 18.75 6.5 18.75H5C4.58579 18.75 4.25 18.4142 4.25 18V6C4.25 5.58579 4.58579 5.25 5 5.25H6.5ZM19 5.25C19.4142 5.25 19.75 5.58579 19.75 6V18C19.75 18.4142 19.4142 18.75 19 18.75H17.5C17.0858 18.75 16.75 18.4142 16.75 18C16.75 17.5858 17.0858 17.25 17.5 17.25H18.25V6.75H17.5C17.0858 6.75 16.75 6.41421 16.75 6C16.75 5.58579 17.0858 5.25 17.5 5.25H19ZM15 14.25C15.4142 14.25 15.75 14.5858 15.75 15C15.75 15.4142 15.4142 15.75 15 15.75H9C8.58579 15.75 8.25 15.4142 8.25 15C8.25 14.5858 8.58579 14.25 9 14.25H15ZM15 11.25C15.4142 11.25 15.75 11.5858 15.75 12C15.75 12.4142 15.4142 12.75 15 12.75H9C8.58579 12.75 8.25 12.4142 8.25 12C8.25 11.5858 8.58579 11.25 9 11.25H15ZM15 8.25C15.4142 8.25 15.75 8.58579 15.75 9C15.75 9.41421 15.4142 9.75 15 9.75H9C8.58579 9.75 8.25 9.41421 8.25 9C8.25 8.58579 8.58579 8.25 9 8.25H15Z" fill="black"/>
</svg>
