<svg width="24" height="24" viewBox="0 0 24 24" fill="none" xmlns="http://www.w3.org/2000/svg">
<path d="M15.5 13.25C15.6989 13.25 15.8896 13.3291 16.0303 13.4697L16.5107 13.9502H18.5C18.7901 13.9502 19.0696 14.0511 19.292 14.2334L19.3838 14.3164L19.4668 14.4082C19.649 14.6306 19.75 14.9102 19.75 15.2002V18.5C19.75 18.8315 19.6182 19.1494 19.3838 19.3838C19.1494 19.6182 18.8315 19.75 18.5 19.75H14.5C14.1685 19.75 13.8506 19.6182 13.6162 19.3838C13.3818 19.1494 13.25 18.8315 13.25 18.5V14C13.25 13.5858 13.5858 13.25 14 13.25H15.5ZM14.75 18.25H18.25V15.4502H16.2002C16.0014 15.4502 15.8106 15.371 15.6699 15.2305L15.1895 14.75H14.75V18.25ZM7 11.5C7.41421 11.5 7.75 11.8358 7.75 12.25V14C7.75 14.1989 7.82907 14.3896 7.96973 14.5303C8.11038 14.6709 8.30109 14.75 8.5 14.75H9.72266L9.51172 14.5693C9.19739 14.2997 9.16116 13.8262 9.43066 13.5117C9.70025 13.1974 10.1738 13.1612 10.4883 13.4307L12.2383 14.9307C12.4044 15.0731 12.5 15.2811 12.5 15.5C12.5 15.7189 12.4044 15.9269 12.2383 16.0693L10.4883 17.5693C10.1738 17.8388 9.70025 17.8026 9.43066 17.4883C9.16116 17.1738 9.19739 16.7003 9.51172 16.4307L9.72266 16.25H8.5C7.90326 16.25 7.33114 16.0128 6.90918 15.5908C6.48722 15.1689 6.25 14.5967 6.25 14V12.25C6.25 11.8358 6.58579 11.5 7 11.5ZM6.5 4.25C6.69891 4.25 6.88962 4.32907 7.03027 4.46973L7.51074 4.9502H9.5C9.79009 4.9502 10.0696 5.05113 10.292 5.2334L10.3838 5.31641L10.4668 5.4082C10.649 5.63061 10.75 5.91019 10.75 6.2002V9.5C10.75 9.83152 10.6182 10.1494 10.3838 10.3838C10.1494 10.6182 9.83152 10.75 9.5 10.75H5.5C5.16848 10.75 4.85063 10.6182 4.61621 10.3838C4.38179 10.1494 4.25 9.83152 4.25 9.5V5C4.25 4.58579 4.58579 4.25 5 4.25H6.5ZM5.75 9.25H9.25V6.4502H7.2002C7.00137 6.4502 6.81056 6.371 6.66992 6.23047L6.18945 5.75H5.75V9.25Z" fill="black"/>
</svg>
