<svg width="24" height="24" viewBox="0 0 24 24" fill="none" xmlns="http://www.w3.org/2000/svg">
<path d="M18.5 6.25C18.791 6.25 19.0562 6.41811 19.1797 6.68164C19.303 6.94523 19.2625 7.25695 19.0761 7.48047L14.7002 12.7256V19C14.7002 19.2661 14.5587 19.5119 14.3291 19.6465C14.0995 19.7811 13.8162 19.7842 13.584 19.6543L9.68357 17.4727C9.44673 17.3401 9.29985 17.0898 9.29978 16.8184V12.7256L4.92381 7.48047C4.73742 7.25695 4.69691 6.94523 4.82029 6.68164C4.94372 6.41811 5.20896 6.25 5.49998 6.25H18.5ZM10.626 11.9746C10.7382 12.1093 10.7997 12.2788 10.7998 12.4541V16.3779L13.2002 17.7207V12.4541C13.2003 12.2788 13.2618 12.1093 13.374 11.9746L16.8974 7.75H7.10252L10.626 11.9746Z" fill="black"/>
</svg>
