<svg width="24" height="24" viewBox="0 0 24 24" fill="none" xmlns="http://www.w3.org/2000/svg">
<path d="M16.4698 6.46979C16.7627 6.1769 17.2374 6.1769 17.5303 6.46979C17.8232 6.76268 17.8232 7.23746 17.5303 7.53033C17.0011 8.05956 16.4123 8.54956 15.8506 9.00983C15.2789 9.47831 14.7399 9.91207 14.2628 10.3594C13.2961 11.2657 12.7501 12.077 12.7501 13.0001V17.5001C12.75 17.9142 12.4142 18.25 12.0001 18.2501C11.5859 18.2501 11.2501 17.9142 11.2501 17.5001V13.0001C11.2501 12.077 10.704 11.2657 9.73737 10.3594C9.2602 9.91209 8.72116 9.47829 8.14948 9.00983C7.58781 8.54957 6.999 8.05954 6.46979 7.53033C6.17689 7.23744 6.17689 6.76268 6.46979 6.46979C6.76268 6.17689 7.23744 6.17689 7.53033 6.46979C8.00105 6.9405 8.5374 7.38812 9.10065 7.84967C9.65388 8.30301 10.24 8.77561 10.7628 9.26569C11.2149 9.68953 11.6516 10.1556 12.0001 10.6778C12.3485 10.1556 12.7853 9.68953 13.2374 9.26569C13.7601 8.77559 14.3462 8.30302 14.8995 7.84967C15.4627 7.3881 15.9991 6.94051 16.4698 6.46979Z" fill="black"/>
</svg>
