<svg width="24" height="24" viewBox="0 0 24 24" fill="none" xmlns="http://www.w3.org/2000/svg">
<path d="M17 14.25C17.4142 14.25 17.75 14.5858 17.75 15V17C17.75 17.3315 17.6182 17.6494 17.3838 17.8838C17.1494 18.1182 16.8315 18.25 16.5 18.25H8.5C8.16848 18.25 7.85063 18.1182 7.61621 17.8838C7.38179 17.6494 7.25 17.3315 7.25 17V15C7.25 14.5858 7.58579 14.25 8 14.25C8.41421 14.25 8.75 14.5858 8.75 15V16.75H16.25V15C16.25 14.5858 16.5858 14.25 17 14.25ZM12.5254 6.25098C12.5319 6.2512 12.5384 6.25156 12.5449 6.25195C12.5839 6.25426 12.622 6.25954 12.6592 6.26758C12.6925 6.2748 12.7246 6.28607 12.7568 6.29785C12.7693 6.30242 12.7828 6.30437 12.7949 6.30957C12.814 6.31772 12.8311 6.33004 12.8496 6.33984C12.9159 6.37502 12.9777 6.41713 13.0303 6.46973L16.0303 9.46973C16.3232 9.76262 16.3232 10.2374 16.0303 10.5303C15.7374 10.8232 15.2626 10.8232 14.9697 10.5303L13.25 8.81055V14.5C13.25 14.9142 12.9142 15.25 12.5 15.25C12.0858 15.25 11.75 14.9142 11.75 14.5V8.81055L10.0303 10.5303C9.73738 10.8232 9.26262 10.8232 8.96973 10.5303C8.67683 10.2374 8.67684 9.76262 8.96973 9.46973L11.9697 6.46973L12.0264 6.41797C12.0366 6.40965 12.0481 6.40321 12.0586 6.39551C12.0741 6.38414 12.09 6.37345 12.1064 6.36328C12.1303 6.34849 12.1546 6.3351 12.1797 6.32324C12.1979 6.31462 12.2164 6.30697 12.2354 6.2998C12.2629 6.28942 12.2909 6.28144 12.3193 6.27441C12.3394 6.26944 12.3592 6.26309 12.3799 6.25977C12.3909 6.25799 12.402 6.25616 12.4131 6.25488C12.4416 6.25159 12.4706 6.25 12.5 6.25C12.5085 6.25 12.517 6.2507 12.5254 6.25098Z" fill="black"/>
</svg>
