<svg width="24" height="24" viewBox="0 0 24 24" fill="none" xmlns="http://www.w3.org/2000/svg">
<path d="M5 16.25C5.41421 16.25 5.75 16.5858 5.75 17V18.25H7C7.41421 18.25 7.75 18.5858 7.75 19C7.75 19.4142 7.41421 19.75 7 19.75H5C4.58579 19.75 4.25 19.4142 4.25 19V17C4.25 16.5858 4.58579 16.25 5 16.25ZM19 16.25C19.4142 16.25 19.75 16.5858 19.75 17V19C19.75 19.4142 19.4142 19.75 19 19.75H17C16.5858 19.75 16.25 19.4142 16.25 19C16.25 18.5858 16.5858 18.25 17 18.25H18.25V17C18.25 16.5858 18.5858 16.25 19 16.25ZM13 14.25C13.4142 14.25 13.75 14.5858 13.75 15C13.75 15.4142 13.4142 15.75 13 15.75H8.75C8.33579 15.75 8 15.4142 8 15C8 14.5858 8.33579 14.25 8.75 14.25H13ZM9.05273 11.25C9.4669 11.2501 9.80273 11.5858 9.80273 12C9.80273 12.4142 9.4669 12.7499 9.05273 12.75H8.5C8.08579 12.75 7.75 12.4142 7.75 12C7.75 11.5858 8.08579 11.25 8.5 11.25H9.05273ZM12.4629 11.25C12.8771 11.2501 13.2129 11.5858 13.2129 12C13.2129 12.4142 12.8771 12.7499 12.4629 12.75H11.6221C11.2081 12.7497 10.8721 12.4141 10.8721 12C10.8721 11.5859 11.2081 11.2503 11.6221 11.25H12.4629ZM15.5 11.25C15.9142 11.25 16.25 11.5858 16.25 12C16.25 12.4142 15.9142 12.75 15.5 12.75H14.9473C14.5331 12.7499 14.1973 12.4142 14.1973 12C14.1973 11.5858 14.5331 11.2501 14.9473 11.25H15.5ZM15.25 8.25C15.6642 8.25 16 8.58579 16 9C16 9.41421 15.6642 9.75 15.25 9.75H8.75C8.33579 9.75 8 9.41421 8 9C8 8.58579 8.33579 8.25 8.75 8.25H15.25ZM7 4.25C7.41421 4.25 7.75 4.58579 7.75 5C7.75 5.41421 7.41421 5.75 7 5.75H5.75V7C5.75 7.41421 5.41421 7.75 5 7.75C4.58579 7.75 4.25 7.41421 4.25 7V5C4.25 4.58579 4.58579 4.25 5 4.25H7ZM19 4.25C19.4142 4.25 19.75 4.58579 19.75 5V7C19.75 7.41421 19.4142 7.75 19 7.75C18.5858 7.75 18.25 7.41421 18.25 7V5.75H17C16.5858 5.75 16.25 5.41421 16.25 5C16.25 4.58579 16.5858 4.25 17 4.25H19Z" fill="black"/>
</svg>
