<svg width="24" height="24" viewBox="0 0 24 24" fill="none" xmlns="http://www.w3.org/2000/svg">
<path d="M7.96973 13.4698C8.26262 13.1769 8.73738 13.1769 9.03027 13.4698L10.5303 14.9698C10.5787 15.0182 10.616 15.0733 10.6484 15.1299C10.664 15.1571 10.6803 15.1838 10.6924 15.213C10.7131 15.263 10.7279 15.3147 10.7373 15.3672C10.745 15.4104 10.75 15.4547 10.75 15.5001C10.75 15.5448 10.7448 15.5884 10.7373 15.6309C10.7279 15.6839 10.7132 15.7359 10.6924 15.7862C10.6715 15.8366 10.6451 15.8837 10.6143 15.9278C10.5893 15.9635 10.5621 15.9985 10.5303 16.0303L9.03027 17.5303C8.73739 17.8232 8.26261 17.8232 7.96973 17.5303C7.67684 17.2375 7.67686 16.7627 7.96973 16.4698L8.18945 16.2501H5C4.58581 16.2501 4.25003 15.9142 4.25 15.5001C4.25 15.0858 4.58579 14.7501 5 14.7501H8.18945L7.96973 14.5303C7.67684 14.2375 7.67686 13.7627 7.96973 13.4698ZM18 15.2501C18.4142 15.2501 18.75 15.5858 18.75 16.0001C18.75 16.4142 18.4142 16.7501 18 16.7501H12.5C12.0858 16.7501 11.75 16.4142 11.75 16.0001C11.75 15.5858 12.0858 15.2501 12.5 15.2501H18ZM18 11.2501C18.4142 11.2501 18.75 11.5858 18.75 12.0001C18.75 12.4142 18.4142 12.7501 18 12.7501H12.5C12.0858 12.7501 11.75 12.4142 11.75 12.0001C11.75 11.5858 12.0858 11.2501 12.5 11.2501H18ZM7.96973 6.46979C8.26262 6.17689 8.73738 6.17689 9.03027 6.46979L10.5303 7.96979C10.5787 8.01818 10.616 8.07326 10.6484 8.12994C10.664 8.15709 10.6803 8.18381 10.6924 8.21295C10.7131 8.26295 10.7279 8.31465 10.7373 8.36725C10.745 8.41039 10.75 8.4547 10.75 8.50006C10.75 8.54478 10.7448 8.58836 10.7373 8.63092C10.7279 8.68387 10.7132 8.73586 10.6924 8.78619C10.6715 8.83656 10.6451 8.88366 10.6143 8.9278C10.5893 8.96351 10.5621 8.99846 10.5303 9.03033L9.03027 10.5303C8.73739 10.8232 8.26261 10.8232 7.96973 10.5303C7.67684 10.2375 7.67686 9.76268 7.96973 9.46979L8.18945 9.25006H5C4.58581 9.25006 4.25003 8.91425 4.25 8.50006C4.25 8.08585 4.58579 7.75006 5 7.75006H8.18945L7.96973 7.53033C7.67684 7.23745 7.67686 6.76268 7.96973 6.46979ZM18 7.25006C18.4142 7.25006 18.75 7.58585 18.75 8.00006C18.75 8.41425 18.4142 8.75006 18 8.75006H12.5C12.0858 8.75006 11.75 8.41425 11.75 8.00006C11.75 7.58585 12.0858 7.25006 12.5 7.25006H18Z" fill="black"/>
</svg>
