<svg width="24" height="24" viewBox="0 0 24 24" fill="none" xmlns="http://www.w3.org/2000/svg">
<path d="M19 16.25C19.4142 16.25 19.75 16.5858 19.75 17C19.75 17.4142 19.4142 17.75 19 17.75H5C4.58579 17.75 4.25 17.4142 4.25 17C4.25 16.5858 4.58579 16.25 5 16.25H19ZM13.5996 10C13.8205 10 14 10.1795 14 10.4004V13.5996C14 13.8205 13.8205 14 13.5996 14H10.4004C10.1795 14 10 13.8205 10 13.5996V10.4004C10 10.1795 10.1795 10 10.4004 10H13.5996ZM8 11.25C8.41421 11.25 8.75 11.5858 8.75 12C8.75 12.4142 8.41421 12.75 8 12.75H5C4.58579 12.75 4.25 12.4142 4.25 12C4.25 11.5858 4.58579 11.25 5 11.25H8ZM19 11.25C19.4142 11.25 19.75 11.5858 19.75 12C19.75 12.4142 19.4142 12.75 19 12.75H16C15.5858 12.75 15.25 12.4142 15.25 12C15.25 11.5858 15.5858 11.25 16 11.25H19ZM7.59961 5C7.82052 5 8 5.17948 8 5.40039V8.59961C8 8.82052 7.82052 9 7.59961 9H4.40039C4.17948 9 4 8.82052 4 8.59961V5.40039C4 5.17948 4.17948 5 4.40039 5H7.59961ZM19 6.25C19.4142 6.25 19.75 6.58579 19.75 7C19.75 7.41421 19.4142 7.75 19 7.75H10C9.58579 7.75 9.25 7.41421 9.25 7C9.25 6.58579 9.58579 6.25 10 6.25H19Z" fill="black"/>
</svg>
