<svg width="24" height="24" viewBox="0 0 24 24" fill="none" xmlns="http://www.w3.org/2000/svg">
<path d="M18.5 12.25C19.1904 12.25 19.75 12.8096 19.75 13.5V17.5C19.75 18.1904 19.1904 18.75 18.5 18.75H14.5C13.8096 18.75 13.25 18.1904 13.25 17.5V13.5C13.25 12.8096 13.8096 12.25 14.5 12.25H18.5ZM9.46973 13.4697C9.76262 13.1768 10.2374 13.1768 10.5303 13.4697L12.0303 14.9697C12.0787 15.0181 12.116 15.0732 12.1484 15.1299C12.164 15.157 12.1803 15.1838 12.1924 15.2129C12.2131 15.2629 12.2279 15.3146 12.2373 15.3672C12.245 15.4103 12.25 15.4546 12.25 15.5C12.25 15.545 12.2449 15.589 12.2373 15.6318C12.2279 15.6845 12.213 15.7361 12.1924 15.7861C12.1803 15.8153 12.1639 15.842 12.1484 15.8691C12.116 15.9261 12.0789 15.9817 12.0303 16.0303L10.5303 17.5303C10.2374 17.8232 9.76262 17.8232 9.46973 17.5303C9.17684 17.2374 9.17683 16.7626 9.46973 16.4697L9.68945 16.25H7C6.58579 16.25 6.25 15.9142 6.25 15.5C6.25 15.0858 6.58579 14.75 7 14.75H9.68945L9.46973 14.5303C9.17684 14.2374 9.17683 13.7626 9.46973 13.4697ZM14.75 17.25H18.25V13.75H14.75V17.25ZM9.5 5.25C10.1904 5.25 10.75 5.80964 10.75 6.5V10.5C10.75 11.1904 10.1904 11.75 9.5 11.75H5.5C4.80964 11.75 4.25 11.1904 4.25 10.5V6.5C4.25 5.80964 4.80964 5.25 5.5 5.25H9.5ZM13.9697 6.46973C14.2626 6.17683 14.7374 6.17684 15.0303 6.46973C15.3232 6.76262 15.3232 7.23738 15.0303 7.53027L14.8105 7.75H17.5C17.9142 7.75 18.25 8.08579 18.25 8.5C18.25 8.91421 17.9142 9.25 17.5 9.25H14.8105L15.0303 9.46973C15.3232 9.76262 15.3232 10.2374 15.0303 10.5303C14.7374 10.8232 14.2626 10.8232 13.9697 10.5303L12.4697 9.03027C12.421 8.98155 12.3831 8.92625 12.3506 8.86914C12.3351 8.84198 12.3187 8.81527 12.3066 8.78613C12.286 8.73615 12.2711 8.6844 12.2617 8.63184C12.2541 8.58903 12.25 8.54499 12.25 8.5C12.25 8.45468 12.254 8.41029 12.2617 8.36719C12.2708 8.31636 12.285 8.26621 12.3047 8.21777L12.3086 8.20801C12.3202 8.18061 12.336 8.1555 12.3506 8.12988C12.383 8.07305 12.4212 8.01824 12.4697 7.96973L13.9697 6.46973ZM5.75 10.25H9.25V6.75H5.75V10.25Z" fill="black"/>
</svg>
