<svg width="24" height="24" viewBox="0 0 24 24" fill="none" xmlns="http://www.w3.org/2000/svg">
<path d="M17.5 8.25C18.1904 8.25 18.75 8.80964 18.75 9.5V13.5C18.75 14.1904 18.1904 14.75 17.5 14.75H13.5C12.8096 14.75 12.25 14.1904 12.25 13.5V9.5C12.25 8.80964 12.8096 8.25 13.5 8.25H17.5ZM7.96973 9.46973C8.26262 9.17683 8.73738 9.17684 9.03027 9.46973L10.5303 10.9697C10.8232 11.2626 10.8232 11.7374 10.5303 12.0303L9.03027 13.5303C8.73738 13.8232 8.26262 13.8232 7.96973 13.5303C7.67684 13.2374 7.67683 12.7626 7.96973 12.4697L8.18945 12.25H5C4.58579 12.25 4.25 11.9142 4.25 11.5C4.25 11.0858 4.58579 10.75 5 10.75H8.18945L7.96973 10.5303C7.67684 10.2374 7.67683 9.76262 7.96973 9.46973ZM13.75 13.25H17.25V9.75H13.75V13.25Z" fill="black"/>
</svg>
