<svg width="24" height="24" viewBox="0 0 24 24" fill="none" xmlns="http://www.w3.org/2000/svg">
<path d="M17.25 4.25C18.6307 4.25 19.75 5.36929 19.75 6.75V17.25C19.75 18.6307 18.6307 19.75 17.25 19.75H6.75C5.36929 19.75 4.25 18.6307 4.25 17.25V6.75C4.25 5.36929 5.36929 4.25 6.75 4.25H17.25ZM6.75 5.75C6.19772 5.75 5.75 6.19772 5.75 6.75V17.25C5.75 17.8023 6.19772 18.25 6.75 18.25H17.25C17.8023 18.25 18.25 17.8023 18.25 17.25V6.75C18.25 6.19772 17.8023 5.75 17.25 5.75H6.75ZM10.25 14C10.9404 14 11.5 14.5596 11.5 15.25C11.5 15.9404 10.9404 16.5 10.25 16.5C9.55964 16.5 9 15.9404 9 15.25C9 14.5596 9.55964 14 10.25 14ZM15.25 11C15.9404 11 16.5 11.5596 16.5 12.25C16.5 12.9404 15.9404 13.5 15.25 13.5C14.5596 13.5 14 12.9404 14 12.25C14 11.5596 14.5596 11 15.25 11ZM9.25 8C9.94036 8 10.5 8.55964 10.5 9.25C10.5 9.94036 9.94036 10.5 9.25 10.5C8.55964 10.5 8 9.94036 8 9.25C8 8.55964 8.55964 8 9.25 8Z" fill="black"/>
</svg>
