<svg width="24" height="24" viewBox="0 0 24 24" fill="none" xmlns="http://www.w3.org/2000/svg">
<path d="M10 4.25C13.1756 4.25 15.75 6.82436 15.75 10C15.75 11.3173 15.3047 12.5295 14.5596 13.499L19.0303 17.9697C19.3232 18.2626 19.3232 18.7374 19.0303 19.0303C18.7374 19.3232 18.2626 19.3232 17.9697 19.0303L13.499 14.5596C12.5295 15.3047 11.3173 15.75 10 15.75C6.82436 15.75 4.25 13.1756 4.25 10C4.25 6.82436 6.82436 4.25 10 4.25ZM10 5.75C7.65279 5.75 5.75 7.65279 5.75 10C5.75 12.3472 7.65279 14.25 10 14.25C11.0876 14.25 12.0784 13.8399 12.8301 13.168C12.8654 13.0968 12.9105 13.029 12.9697 12.9697C13.029 12.9105 13.0968 12.8654 13.168 12.8301C13.8399 12.0784 14.25 11.0876 14.25 10C14.25 7.65279 12.3472 5.75 10 5.75ZM8 9.25C8.41421 9.25 8.75 9.58579 8.75 10V12C8.75 12.4142 8.41421 12.75 8 12.75C7.58579 12.75 7.25 12.4142 7.25 12V10C7.25 9.58579 7.58579 9.25 8 9.25ZM10 6.75C10.4142 6.75 10.75 7.08579 10.75 7.5V12C10.75 12.4142 10.4142 12.75 10 12.75C9.58579 12.75 9.25 12.4142 9.25 12V7.5C9.25 7.08579 9.58579 6.75 10 6.75ZM12 8.25C12.4142 8.25 12.75 8.58579 12.75 9V12C12.75 12.4142 12.4142 12.75 12 12.75C11.5858 12.75 11.25 12.4142 11.25 12V9C11.25 8.58579 11.5858 8.25 12 8.25Z" fill="black"/>
</svg>
