<svg width="24" height="24" viewBox="0 0 24 24" fill="none" xmlns="http://www.w3.org/2000/svg">
<path d="M18.2998 5.25C19.1006 5.25 19.75 5.89938 19.75 6.7002V17.2998C19.75 18.1006 19.1006 18.75 18.2998 18.75H5.7002C4.89938 18.75 4.25 18.1006 4.25 17.2998V6.7002C4.25 5.89938 4.89938 5.25 5.7002 5.25H18.2998ZM5.75 17.25H18.25V9.75H5.75V17.25ZM12 14.5C12.4142 14.5 12.75 14.8358 12.75 15.25C12.75 15.6642 12.4142 16 12 16H8C7.58579 16 7.25 15.6642 7.25 15.25C7.25 14.8358 7.58579 14.5 8 14.5H12ZM15 11.5C15.4142 11.5 15.75 11.8358 15.75 12.25C15.75 12.6642 15.4142 13 15 13H8C7.58579 13 7.25 12.6642 7.25 12.25C7.25 11.8358 7.58579 11.5 8 11.5H15ZM5.75 8.25H18.25V6.75H5.75V8.25Z" fill="black"/>
</svg>
