<svg width="24" height="24" viewBox="0 0 24 24" fill="none" xmlns="http://www.w3.org/2000/svg">
<path d="M11.6748 7.32422C11.9347 7.19933 12.2436 7.23396 12.4688 7.41406L17.4688 11.4141C17.6467 11.5564 17.75 11.7722 17.75 12C17.75 12.2278 17.6467 12.4436 17.4688 12.5859L12.4688 16.5859C12.2436 16.766 11.9347 16.8007 11.6748 16.6758C11.4151 16.5508 11.25 16.2882 11.25 16V12.7607L6.46875 16.5859C6.24362 16.766 5.93465 16.8007 5.6748 16.6758C5.41514 16.5508 5.25 16.2882 5.25 16V8C5.25 7.71182 5.41514 7.44917 5.6748 7.32422C5.93465 7.19933 6.24362 7.23396 6.46875 7.41406L11.25 11.2383V8C11.25 7.71182 11.4151 7.44917 11.6748 7.32422ZM18.5 7.25C18.9142 7.25 19.25 7.58579 19.25 8V16C19.25 16.4142 18.9142 16.75 18.5 16.75C18.0858 16.75 17.75 16.4142 17.75 16V8C17.75 7.58579 18.0858 7.25 18.5 7.25ZM6.75 14.4385L9.79883 12L6.75 9.56055V14.4385ZM12.75 14.4385L15.7988 12L12.75 9.56055V14.4385Z" fill="black"/>
</svg>
