<svg width="24" height="24" viewBox="0 0 24 24" fill="none" xmlns="http://www.w3.org/2000/svg">
<path d="M5.45898 6.20211C5.79565 5.91375 6.2926 5.93412 6.60644 6.26364L7.74902 7.46383C8.08368 7.81527 8.08366 8.38484 7.74902 8.73629C7.47853 9.02029 7.07258 9.07434 6.74999 8.89938V14.0996C7.07251 13.9249 7.47865 13.9798 7.74902 14.2636C8.08368 14.6151 8.08361 15.1846 7.74902 15.5361L6.60644 16.7363C6.27169 17.0878 5.72829 17.0878 5.39355 16.7363L4.25097 15.5361C3.91641 15.1846 3.91635 14.6151 4.25097 14.2636C4.52132 13.9798 4.92748 13.9249 5.24999 14.0996V8.89938C4.92741 9.07432 4.52145 9.02028 4.25097 8.73629C3.91635 8.38485 3.91634 7.81527 4.25097 7.46383L5.39355 6.26364L5.45898 6.20211ZM19 15.25C19.4142 15.25 19.75 15.5858 19.75 16C19.75 16.4142 19.4142 16.75 19 16.75H11C10.5858 16.75 10.25 16.4142 10.25 16C10.25 15.5858 10.5858 15.25 11 15.25H19ZM19 11.25C19.4142 11.25 19.75 11.5858 19.75 12C19.75 12.4142 19.4142 12.75 19 12.75H11C10.5858 12.75 10.25 12.4142 10.25 12C10.25 11.5858 10.5858 11.25 11 11.25H19ZM19 7.24997C19.4142 7.24997 19.75 7.58577 19.75 7.99997C19.75 8.41418 19.4142 8.74997 19 8.74997H11C10.5858 8.74996 10.25 8.41418 10.25 7.99997C10.25 7.58577 10.5858 7.24997 11 7.24997H19Z" fill="black"/>
</svg>
