<svg width="24" height="24" viewBox="0 0 24 24" fill="none" xmlns="http://www.w3.org/2000/svg">
<path d="M8.02545 5.25098C8.0323 5.25121 8.03912 5.25153 8.04596 5.25195C8.08462 5.25429 8.12238 5.2596 8.15924 5.26758C8.19252 5.2748 8.22466 5.28607 8.2569 5.29785C8.26938 5.30242 8.28282 5.30437 8.29498 5.30957C8.31407 5.31772 8.33118 5.33004 8.34967 5.33984C8.41594 5.37502 8.47774 5.41713 8.53033 5.46973L10.5303 7.46973C10.8232 7.76261 10.8232 8.23739 10.5303 8.53027C10.2375 8.82316 9.76268 8.82314 9.46979 8.53027L8.75006 7.81055V18C8.75006 18.4142 8.41425 18.75 8.00006 18.75C7.58585 18.75 7.25006 18.4142 7.25006 18V7.81055L6.53033 8.53027C6.23745 8.82316 5.76268 8.82314 5.46979 8.53027C5.17689 8.23738 5.17689 7.76262 5.46979 7.46973L7.46979 5.46973L7.52643 5.41797C7.53663 5.40965 7.54813 5.40321 7.55865 5.39551C7.57419 5.38414 7.59009 5.37345 7.60651 5.36328C7.63041 5.34849 7.65468 5.3351 7.67975 5.32324C7.69792 5.31463 7.71647 5.30697 7.73541 5.2998C7.76299 5.28942 7.791 5.28144 7.8194 5.27441C7.83946 5.26944 7.85928 5.26309 7.87994 5.25977C7.891 5.25799 7.90204 5.25616 7.91315 5.25488C7.94164 5.2516 7.97069 5.25 8.00006 5.25C8.00856 5.25 8.01702 5.2507 8.02545 5.25098ZM16.3497 18.2002H15.3506V14.4219H15.3223L14.2403 15.0996V14.2139L15.4102 13.4727H16.3497V18.2002ZM15.4483 5.4082C15.6912 5.40823 15.925 5.44882 16.1495 5.53027C16.3757 5.61183 16.578 5.74239 16.7549 5.9209C16.9333 6.09936 17.0738 6.33659 17.1768 6.63184C17.2814 6.92566 17.3344 7.28628 17.336 7.71387C17.336 8.1155 17.291 8.47458 17.2003 8.79004C17.111 9.10384 16.9822 9.37083 16.8145 9.59082C16.6468 9.8108 16.444 9.97836 16.2071 10.0938C15.9702 10.2075 15.7054 10.2646 15.4131 10.2646C15.0979 10.2646 14.8197 10.2035 14.5782 10.082C14.3366 9.95893 14.1419 9.79187 13.9942 9.58105C13.8481 9.36882 13.7594 9.1307 13.7286 8.86621H14.7139C14.7524 9.03834 14.8332 9.17224 14.9561 9.26758C15.0792 9.36139 15.2317 9.40815 15.4131 9.4082C15.7209 9.4082 15.9553 9.27454 16.1153 9.00684C16.2753 8.73761 16.3559 8.369 16.3575 7.90137H16.3253C16.2545 8.03972 16.159 8.15884 16.0391 8.25879C15.9191 8.35723 15.7814 8.43345 15.626 8.4873C15.4722 8.54116 15.3077 8.56836 15.1339 8.56836C14.8555 8.56831 14.6071 8.50275 14.3887 8.37207C14.1702 8.24128 13.9973 8.0613 13.8712 7.83203C13.745 7.60275 13.6827 7.34079 13.6827 7.04688C13.6812 6.73005 13.7538 6.44785 13.9014 6.2002C14.0492 5.95244 14.2559 5.7582 14.5206 5.61816C14.7867 5.4767 15.096 5.40666 15.4483 5.4082ZM15.4551 6.19336C15.2997 6.19336 15.1607 6.22985 15.0391 6.30371C14.9192 6.37756 14.8237 6.47702 14.753 6.60156C14.6838 6.72615 14.6499 6.86573 14.6514 7.01953C14.6515 7.17482 14.6853 7.3149 14.753 7.43945C14.8222 7.56256 14.9167 7.66051 15.0352 7.73438C15.1551 7.80662 15.2917 7.84369 15.4454 7.84375C15.5608 7.84375 15.6682 7.82141 15.7667 7.77832C15.8651 7.73524 15.9502 7.67595 16.0225 7.60059C16.0963 7.52371 16.1548 7.43585 16.1964 7.33594C16.2379 7.23591 16.2579 7.12894 16.2579 7.0166C16.2563 6.86764 16.2214 6.73088 16.1524 6.60645C16.0832 6.48185 15.9878 6.38106 15.8663 6.30566C15.7447 6.23028 15.6074 6.19338 15.4551 6.19336Z" fill="black"/>
</svg>
