<svg width="24" height="24" viewBox="0 0 24 24" fill="none" xmlns="http://www.w3.org/2000/svg">
<path d="M14 6.25C17.1756 6.25 19.75 8.82436 19.75 12C19.75 15.1756 17.1756 17.75 14 17.75C13.2966 17.75 12.623 17.6228 12 17.3916C11.377 17.6228 10.7034 17.75 10 17.75C6.82436 17.75 4.25 15.1756 4.25 12C4.25 8.82436 6.82436 6.25 10 6.25C10.7033 6.25 11.3771 6.37632 12 6.60742C12.6229 6.37632 13.2967 6.25 14 6.25ZM10 7.75C7.65279 7.75 5.75 9.65279 5.75 12C5.75 14.3472 7.65279 16.25 10 16.25C10.0415 16.25 10.0828 16.2473 10.124 16.2461C8.97281 15.1946 8.25 13.682 8.25 12C8.25 10.3178 8.97252 8.80441 10.124 7.75293C10.0828 7.75175 10.0415 7.75 10 7.75ZM13.875 7.75293C15.0268 8.80443 15.75 10.3175 15.75 12C15.75 13.6822 15.0265 15.1946 13.875 16.2461C13.9165 16.2473 13.9582 16.25 14 16.25C16.3472 16.25 18.25 14.3472 18.25 12C18.25 9.65279 16.3472 7.75 14 7.75C13.9582 7.75 13.9165 7.75173 13.875 7.75293ZM12 8.24902C10.6611 8.96444 9.75 10.3758 9.75 12C9.75 13.624 10.6613 15.0345 12 15.75C13.3387 15.0345 14.25 13.624 14.25 12C14.25 10.3758 13.3389 8.96444 12 8.24902Z" fill="black"/>
</svg>
