<svg width="24" height="24" viewBox="0 0 24 24" fill="none" xmlns="http://www.w3.org/2000/svg">
<path d="M9.2002 4.25C9.61432 4.25011 9.9502 4.58585 9.9502 5C9.9502 5.41415 9.61432 5.74989 9.2002 5.75H8.2666C8.00794 5.75002 7.73409 5.86778 7.51367 6.12207C7.2903 6.37981 7.15039 6.75006 7.15039 7.1543V10.3848C7.15036 10.9726 6.94996 11.5531 6.57031 12C6.94996 12.4469 7.15036 13.0274 7.15039 13.6152V16.8457C7.15039 17.2499 7.2903 17.6202 7.51367 17.8779C7.73409 18.1322 8.00794 18.25 8.2666 18.25H9.2002C9.61432 18.2501 9.95019 18.5859 9.9502 19C9.9502 19.4141 9.61432 19.7499 9.2002 19.75H8.2666C7.53518 19.75 6.85956 19.4138 6.37988 18.8604C5.90314 18.3102 5.65039 17.5839 5.65039 16.8457V13.6152C5.65036 13.3539 5.55868 13.1206 5.42285 12.9639C5.29001 12.8108 5.13481 12.75 5 12.75C4.58579 12.75 4.25 12.4142 4.25 12C4.25 11.5858 4.58579 11.25 5 11.25C5.13481 11.25 5.29001 11.1892 5.42285 11.0361C5.55868 10.8794 5.65036 10.6461 5.65039 10.3848V7.1543C5.65039 6.41608 5.90314 5.68975 6.37988 5.13965C6.85956 4.58618 7.53518 4.25002 8.2666 4.25H9.2002ZM15.7334 4.25C16.4647 4.25008 17.1405 4.58628 17.6201 5.13965C18.0968 5.68974 18.3496 6.41612 18.3496 7.1543V10.3848C18.3496 10.6461 18.4404 10.8794 18.5762 11.0361C18.709 11.1894 18.8651 11.2499 19 11.25C19.4141 11.2501 19.75 11.5859 19.75 12C19.75 12.4141 19.4141 12.7499 19 12.75C18.8651 12.7501 18.709 12.8106 18.5762 12.9639C18.4404 13.1206 18.3496 13.3539 18.3496 13.6152V16.8457C18.3496 17.5839 18.0968 18.3103 17.6201 18.8604C17.1405 19.4137 16.4647 19.7499 15.7334 19.75H14.7998C14.3857 19.7499 14.0498 19.4142 14.0498 19C14.0498 18.5858 14.3857 18.2501 14.7998 18.25H15.7334C15.992 18.2499 16.266 18.1321 16.4863 17.8779C16.7097 17.6202 16.8496 17.2499 16.8496 16.8457V13.6152C16.8496 13.0276 17.0493 12.4468 17.4287 12C17.0493 11.5532 16.8496 10.9724 16.8496 10.3848V7.1543C16.8496 6.75008 16.7097 6.37981 16.4863 6.12207C16.266 5.86786 15.992 5.75008 15.7334 5.75H14.7998C14.3857 5.7499 14.0498 5.41415 14.0498 5C14.0498 4.58585 14.3857 4.2501 14.7998 4.25H15.7334ZM13.7334 11.25C14.1476 11.25 14.4834 11.5858 14.4834 12C14.4834 12.4142 14.1476 12.75 13.7334 12.75H10C9.58579 12.75 9.25 12.4142 9.25 12C9.25 11.5858 9.58579 11.25 10 11.25H13.7334Z" fill="black"/>
</svg>
