<svg width="24" height="24" viewBox="0 0 24 24" fill="none" xmlns="http://www.w3.org/2000/svg">
<path d="M8 4.25C8.41421 4.25 8.75 4.58579 8.75 5C8.75 5.41421 8.41421 5.75 8 5.75H6C5.97428 5.75 5.9213 5.76125 5.8623 5.83008C5.80032 5.9025 5.75 6.02245 5.75 6.16699V17.833C5.75 17.9776 5.80032 18.0975 5.8623 18.1699C5.9213 18.2387 5.97428 18.25 6 18.25H8C8.41421 18.25 8.75 18.5858 8.75 19C8.75 19.4142 8.41421 19.75 8 19.75H6C5.49535 19.75 5.03971 19.5152 4.72363 19.1465C4.41062 18.7813 4.25 18.3072 4.25 17.833V6.16699C4.25 5.69282 4.41062 5.2187 4.72363 4.85352C5.03971 4.48484 5.49535 4.25 6 4.25H8ZM19 16.25C19.4142 16.25 19.75 16.5858 19.75 17C19.75 17.4142 19.4142 17.75 19 17.75H14C13.5858 17.75 13.25 17.4142 13.25 17C13.25 16.5858 13.5858 16.25 14 16.25H19ZM16 12.25C16.4142 12.25 16.75 12.5858 16.75 13C16.75 13.4142 16.4142 13.75 16 13.75H11C10.5858 13.75 10.25 13.4142 10.25 13C10.25 12.5858 10.5858 12.25 11 12.25H16ZM13 8.25C13.4142 8.25 13.75 8.58579 13.75 9C13.75 9.41421 13.4142 9.75 13 9.75H8C7.58579 9.75 7.25 9.41421 7.25 9C7.25 8.58579 7.58579 8.25 8 8.25H13Z" fill="black"/>
</svg>
