<svg width="24" height="24" viewBox="0 0 24 24" fill="none" xmlns="http://www.w3.org/2000/svg">
<path d="M10.1855 4.25C13.4633 4.2502 16.1201 6.90776 16.1201 10.1855C16.12 11.5539 15.655 12.8126 14.877 13.8164L19.5303 18.4697C19.8228 18.7626 19.823 19.2375 19.5303 19.5303C19.2375 19.823 18.7626 19.8228 18.4697 19.5303L13.8164 14.877C12.8126 15.655 11.5539 16.12 10.1855 16.1201C6.90776 16.1201 4.2502 13.4633 4.25 10.1855C4.25 6.90763 6.90763 4.25 10.1855 4.25ZM10.1855 5.75C7.73606 5.75 5.75 7.73606 5.75 10.1855C5.7502 12.6349 7.73618 14.6201 10.1855 14.6201C11.3222 14.62 12.3578 14.1913 13.1426 13.4883C13.1781 13.4151 13.2234 13.3449 13.2842 13.2842C13.3449 13.2234 13.4151 13.1781 13.4883 13.1426C14.1913 12.3578 14.62 11.3222 14.6201 10.1855C14.6201 7.73618 12.6349 5.7502 10.1855 5.75ZM10.1533 6.84961C10.5674 6.84961 10.9031 7.18558 10.9033 7.59961V10.0508L12.833 11.3828C13.1739 11.6182 13.2598 12.0859 13.0244 12.4268C12.789 12.7672 12.3212 12.8524 11.9805 12.6172L10.1533 11.3555L8.32617 12.6172C7.98552 12.8524 7.51868 12.7671 7.2832 12.4268C7.04785 12.0859 7.13375 11.6182 7.47461 11.3828L9.40332 10.0508V7.59961C9.40353 7.1857 9.73941 6.84981 10.1533 6.84961Z" fill="black"/>
</svg>
